<?xml version="1.0" standalone="no"?>
<!DOCTYPE svg PUBLIC "-//W3C//DTD SVG 20010904//EN"
 "http://www.w3.org/TR/2001/REC-SVG-20010904/DTD/svg10.dtd">
<svg version="1.0" xmlns="http://www.w3.org/2000/svg"
 width="138.000000pt" height="132.000000pt" viewBox="0 0 138.000000 132.000000"
 preserveAspectRatio="xMidYMid meet">

<g transform="translate(0.000000,132.000000) scale(0.100000,-0.100000)"
fill="#000000" stroke="none">
<path d="M530 1244 c-174 -45 -323 -162 -398 -312 -52 -104 -66 -172 -59 -292
11 -211 126 -384 322 -480 105 -52 180 -70 290 -70 181 0 322 57 446 180 119
117 173 242 173 405 0 268 -194 506 -464 569 -81 19 -237 19 -310 0z m242 -15
c250 -52 404 -284 385 -579 -16 -235 -114 -408 -278 -489 -177 -87 -357 -55
-500 88 -111 111 -161 249 -162 441 0 174 42 294 140 400 107 116 268 170 415
139z"/>
<path d="M415 930 c-16 -4 -22 -8 -12 -9 29 -2 29 -23 3 -129 -15 -55 -26
-103 -26 -106 0 -15 52 -3 106 24 90 45 174 145 174 207 0 41 -31 22 -45 -27
-19 -69 -135 -190 -181 -190 -8 0 -3 33 17 113 16 61 29 115 29 120 0 8 -24 7
-65 -3z"/>
<path d="M779 717 c-53 -36 -74 -77 -108 -211 -35 -142 -37 -156 -16 -156 13
0 21 21 41 105 10 44 13 47 37 30 30 -21 54 -19 103 10 49 29 84 91 84 149 0
28 -7 45 -29 67 -35 35 -67 37 -112 6z m86 -7 c14 -15 16 -29 11 -66 -14 -106
-71 -179 -121 -156 -14 6 -27 22 -31 36 -10 40 24 136 61 173 38 38 55 41 80
13z"/>
</g>
</svg>
